<?xml version="1.0" encoding="UTF-8" standalone="no"?>
<!DOCTYPE svg PUBLIC "-//W3C//DTD SVG 1.1//EN" "http://www.w3.org/Graphics/SVG/1.1/DTD/svg11.dtd">
<svg width="100%" height="100%" viewBox="0 0 3508 2481" version="1.1" xmlns="http://www.w3.org/2000/svg" xmlns:xlink="http://www.w3.org/1999/xlink" xml:space="preserve" xmlns:serif="http://www.serif.com/" style="fill-rule:evenodd;clip-rule:evenodd;stroke-linejoin:round;stroke-miterlimit:1.41421;">
    <rect x="0" y="0" width="3507.87" height="2480.32" style="fill:rgb(244,244,244);"/>
    <g id="More-agencies" serif:id="More agencies" transform="matrix(1,0,0,1,1170,1173.83)">
        <g transform="matrix(1,0,0,0.624495,-1183,144.569)">
            <path d="M2274,412.986C2274,405.563 2272.16,398.445 2268.88,393.197C2265.6,387.948 2261.16,385 2256.52,385C2132.18,385 1382.82,385 1258.48,385C1253.84,385 1249.4,387.948 1246.12,393.197C1242.84,398.445 1241,405.563 1241,412.986C1241,498.744 1241,757.256 1241,843.014C1241,850.437 1242.84,857.555 1246.12,862.803C1249.4,868.052 1253.84,871 1258.48,871C1382.82,871 2132.18,871 2256.52,871C2261.16,871 2265.6,868.052 2268.88,862.803C2272.16,857.555 2274,850.437 2274,843.014C2274,757.256 2274,498.744 2274,412.986Z" style="fill:white;"/>
        </g>
        <g id="title" transform="matrix(0.860301,0,0,0.860301,-1005.35,82.86)">
            <text x="1287px" y="571px" style="font-family:'Quicksand-Bold', 'Quicksand';font-weight:700;font-size:48.649px;">Onboar<tspan x="1463.45px " y="571px ">d</tspan> Mor<tspan x="1597.13px " y="571px ">e</tspan> Ag<tspan x="1699.88px " y="571px ">e</tspan>ncies</text>
        </g>
        <g id="body" transform="matrix(0.860301,0,0,0.860301,-1005.35,152.739)">
            <text x="1287px" y="571px" style="font-family:'Quicksand-Regular', 'Quicksand';font-size:38.746px;fill:rgb(105,105,105);stroke:rgb(105,105,105);stroke-width:0.48px;">A<tspan x="1311.88px " y="571px ">t</tspan>tr<tspan x="1352.6px " y="571px ">a</tspan>ct mor<tspan x="1492.01px " y="571px ">e</tspan> ag<tspan x="1570.7px " y="571px ">e</tspan>ncies, and then mor<tspan x="1942.39px " y="571px ">e</tspan> consumers</text>
        </g>
        <g transform="matrix(0.172947,0,0,0.144033,-114.319,376.403)">
            <path d="M2280,458.084C2280,438.966 2273.68,420.631 2262.42,407.113C2251.16,393.594 2235.89,386 2219.97,386C2037.04,386 1487.96,386 1305.03,386C1289.11,386 1273.84,393.594 1262.58,407.113C1251.33,420.631 1245,438.966 1245,458.084C1245,549.999 1245,708.001 1245,799.916C1245,819.034 1251.33,837.369 1262.58,850.887C1273.84,864.406 1289.11,872 1305.03,872C1487.96,872 2037.04,872 2219.97,872C2235.89,872 2251.16,864.405 2262.42,850.887C2273.68,837.369 2280,819.034 2280,799.916C2280,708.001 2280,549.999 2280,458.084Z" style="fill:rgb(235,90,174);"/>
        </g>
        <g transform="matrix(1,0,0,1,-1226.8,2.48649)">
            <text x="1351px" y="478px" style="font-family:'Quicksand-Regular', 'Quicksand';font-size:37.838px;fill:white;stroke:white;stroke-width:1.46px;">Uptak<tspan x="1455.77px " y="478px ">e</tspan></text>
        </g>
    </g>
    <g id="API-key-management" serif:id="API key management" transform="matrix(1,0,0,1,2344,490.671)">
        <g transform="matrix(1,0,0,0.861806,-1183,53.2046)">
            <path d="M2274,405.279C2274,394.079 2266.18,385 2256.52,385C2132.18,385 1382.82,385 1258.48,385C1248.83,385 1241,394.079 1241,405.279C1241,484.369 1241,771.631 1241,850.721C1241,861.921 1248.83,871 1258.48,871C1382.82,871 2132.18,871 2256.52,871C2266.18,871 2274,861.921 2274,850.721C2274,771.631 2274,484.369 2274,405.279Z" style="fill:white;"/>
        </g>
        <g id="title1" serif:id="title" transform="matrix(0.860301,0,0,0.860301,-1005.35,82.86)">
            <text x="1287px" y="571px" style="font-family:'Quicksand-Bold', 'Quicksand';font-weight:700;font-size:48.649px;">R<tspan x="1320.18px " y="571px ">e</tspan>us<tspan x="1400.79px " y="571px ">a</tspan>bl<tspan x="1474.05px " y="571px ">e</tspan> API K<tspan x="1634.16px 1662.13px " y="571px 571px ">ey</tspan> Manag<tspan x="1863.58px " y="571px ">e</tspan>ment</text>
        </g>
        <g id="body1" serif:id="body" transform="matrix(0.860301,0,0,0.860301,-1005.35,152.739)">
            <text x="1287px" y="571px" style="font-family:'Quicksand-Regular', 'Quicksand';font-size:38.746px;fill:rgb(105,105,105);stroke:rgb(105,105,105);stroke-width:0.48px;">All<tspan x="1329.5px " y="571px ">o</tspan>w consumers t<tspan x="1611.34px " y="571px ">o</tspan> r<tspan x="1659.04px 1680.39px " y="571px 571px ">eg</tspan>ist<tspan x="1743.82px " y="571px ">e</tspan>r for a singl<tspan x="1968.39px " y="571px ">e</tspan> API k<tspan x="2088.81px 2110.16px " y="571px 571px ">ey</tspan> that can be</text>
            <text x="1287px" y="624.276px" style="font-family:'Quicksand-Regular', 'Quicksand';font-size:38.746px;fill:rgb(105,105,105);stroke:rgb(105,105,105);stroke-width:0.48px;">used for mul<tspan x="1511.07px " y="624.276px ">t</tspan>ipl<tspan x="1564.35px " y="624.276px ">e</tspan> g<tspan x="1619.71px 1642.57px 1662.88px " y="624.276px 624.276px 624.276px ">ove</tspan>rnment APIs with similar security</text>
            <text x="1287px" y="677.552px" style="font-family:'Quicksand-Regular', 'Quicksand';font-size:38.746px;fill:rgb(105,105,105);stroke:rgb(105,105,105);stroke-width:0.48px;">r<tspan x="1301.07px " y="677.552px ">e</tspan>quir<tspan x="1390.34px " y="677.552px ">e</tspan>ment<tspan x="1505.06px " y="677.552px ">s</tspan></text>
        </g>
        <g transform="matrix(0.387995,0,0,0.144033,-382.054,376.403)">
            <path d="M2280,458.084C2280,438.966 2277.18,420.631 2272.16,407.113C2267.14,393.594 2260.34,386 2253.24,386C2108.14,386 1416.86,386 1271.76,386C1264.66,386 1257.86,393.594 1252.84,407.113C1247.82,420.631 1245,438.966 1245,458.084C1245,549.999 1245,708.001 1245,799.916C1245,819.034 1247.82,837.369 1252.84,850.887C1257.86,864.406 1264.66,872 1271.76,872C1416.86,872 2108.14,872 2253.24,872C2260.34,872 2267.14,864.406 2272.16,850.887C2277.18,837.369 2280,819.034 2280,799.916C2280,708.001 2280,549.999 2280,458.084Z" style="fill:rgb(12,194,181);"/>
        </g>
        <g transform="matrix(1,0,0,1,-1226.8,2.48649)">
            <text x="1351px" y="478px" style="font-family:'Quicksand-Regular', 'Quicksand';font-size:37.838px;fill:white;stroke:white;stroke-width:1.46px;">Pr<tspan x="1387.29px 1409.8px 1433.18px " y="478px 478px 478px ">odu</tspan>cer Experience</text>
        </g>
        <g transform="matrix(0.411594,0,0,0.144033,16.5763,376.403)">
            <path d="M2280,458.084C2280,438.966 2277.34,420.631 2272.61,407.113C2267.88,393.595 2261.47,386 2254.78,386C2112.58,386 1412.42,386 1270.23,386C1263.54,386 1257.12,393.595 1252.39,407.113C1247.66,420.631 1245,438.966 1245,458.084C1245,549.999 1245,708.001 1245,799.916C1245,819.034 1247.66,837.369 1252.39,850.887C1257.12,864.405 1263.54,872 1270.23,872C1412.42,872 2112.58,872 2254.78,872C2261.47,872 2267.88,864.405 2272.61,850.887C2277.34,837.369 2280,819.034 2280,799.916C2280,708.001 2280,549.999 2280,458.084Z" style="fill:rgb(159,91,232);"/>
        </g>
        <g transform="matrix(1,0,0,1,-798.789,2.48649)">
            <text x="1351px" y="478px" style="font-family:'Quicksand-Regular', 'Quicksand';font-size:37.838px;fill:white;stroke:white;stroke-width:1.46px;">Consumer Experience</text>
        </g>
    </g>
    <g id="Authorisation-for-sensitive" serif:id="Authorisation for sensitive" transform="matrix(1,0,0,1,0,1298.91)">
        <g transform="matrix(1,0,0,0.734234,-1183,102.32)">
            <path d="M2274,408.803C2274,402.49 2272.16,396.436 2268.88,391.972C2265.6,387.508 2261.16,385 2256.52,385C2132.18,385 1382.82,385 1258.48,385C1253.84,385 1249.4,387.508 1246.12,391.972C1242.84,396.436 1241,402.49 1241,408.803C1241,491.335 1241,764.665 1241,847.197C1241,853.51 1242.84,859.564 1246.12,864.028C1249.4,868.492 1253.84,871 1258.48,871C1382.82,871 2132.18,871 2256.52,871C2261.16,871 2265.6,868.492 2268.88,864.028C2272.16,859.564 2274,853.51 2274,847.197C2274,764.665 2274,491.335 2274,408.803Z" style="fill:white;"/>
        </g>
        <g id="title2" serif:id="title" transform="matrix(0.860301,0,0,0.860301,-1005.35,82.86)">
            <text x="1287px" y="571px" style="font-family:'Quicksand-Bold', 'Quicksand';font-weight:700;font-size:48.649px;">Pr<tspan x="1336.38px 1366.25px 1385.9px " y="571px 571px 571px ">ote</tspan>ct sensitiv<tspan x="1646.76px " y="571px ">e</tspan> information</text>
        </g>
        <g id="body2" serif:id="body" transform="matrix(0.860301,0,0,0.860301,-1005.35,152.739)">
            <text x="1287px" y="571px" style="font-family:'Quicksand-Regular', 'Quicksand';font-size:38.746px;fill:rgb(105,105,105);stroke:rgb(105,105,105);stroke-width:0.48px;">Enabl<tspan x="1386.58px " y="571px ">e</tspan> G2G API a<tspan x="1596.47px " y="571px ">u</tspan>thors t<tspan x="1733.32px " y="571px ">o</tspan> hide sensitiv<tspan x="1983px " y="571px ">e</tspan> information about</text>
            <text x="1287px" y="624.276px" style="font-family:'Quicksand-Regular', 'Quicksand';font-size:38.746px;fill:rgb(105,105,105);stroke:rgb(105,105,105);stroke-width:0.48px;">their APIs fr<tspan x="1491.81px " y="624.276px ">o</tspan>m una<tspan x="1628.16px " y="624.276px ">u</tspan>thorised users, such as URLs</text>
        </g>
        <g transform="matrix(0.196135,0,0,0.144033,-143.188,376.403)">
            <path d="M2280,458.084C2280,438.966 2274.42,420.631 2264.5,407.113C2254.57,393.594 2241.1,386 2227.07,386C2049.4,386 1475.6,386 1297.93,386C1283.9,386 1270.43,393.594 1260.5,407.113C1250.58,420.631 1245,438.966 1245,458.084C1245,549.999 1245,708.001 1245,799.916C1245,819.034 1250.58,837.369 1260.5,850.887C1270.43,864.406 1283.9,872 1297.93,872C1475.6,872 2049.4,872 2227.07,872C2241.1,872 2254.57,864.406 2264.5,850.887C2274.42,837.369 2280,819.034 2280,799.916C2280,708.001 2280,549.999 2280,458.084Z" style="fill:rgb(242,147,67);"/>
        </g>
        <g transform="matrix(1,0,0,1,-1226.8,2.48649)">
            <text x="1351px" y="478px" style="font-family:'Quicksand-Regular', 'Quicksand';font-size:37.838px;fill:white;stroke:white;stroke-width:1.46px;">G2G APIs</text>
        </g>
    </g>
    <g id="Contemporary-API-documentation" serif:id="Contemporary API documentation" transform="matrix(1,0,0,1,2344,72.4307)">
        <g transform="matrix(1,0,0,0.81551,-1183,71.0287)">
            <path d="M2274,406.431C2274,400.747 2272.16,395.296 2268.88,391.277C2265.6,387.258 2261.16,385 2256.52,385C2132.18,385 1382.82,385 1258.48,385C1253.84,385 1249.4,387.258 1246.12,391.277C1242.84,395.296 1241,400.747 1241,406.431C1241,486.729 1241,769.271 1241,849.569C1241,855.253 1242.84,860.704 1246.12,864.723C1249.4,868.742 1253.84,871 1258.48,871C1382.82,871 2132.18,871 2256.52,871C2261.16,871 2265.6,868.742 2268.88,864.723C2272.16,860.704 2274,855.253 2274,849.569C2274,769.271 2274,486.729 2274,406.431Z" style="fill:white;"/>
        </g>
        <g id="title3" serif:id="title" transform="matrix(0.860301,0,0,0.860301,-1005.35,82.86)">
            <text x="1287px" y="571px" style="font-family:'Quicksand-Bold', 'Quicksand';font-weight:700;font-size:48.649px;">D<tspan x="1322.17px " y="571px ">e</tspan>tail<tspan x="1424.72px " y="571px ">e</tspan>d F<tspan x="1523.48px " y="571px ">e</tspan>edback Loop</text>
        </g>
        <g id="body3" serif:id="body" transform="matrix(0.860301,0,0,0.860301,-1005.35,152.739)">
            <text x="1287px" y="571px" style="font-family:'Quicksand-Regular', 'Quicksand';font-size:38.746px;fill:rgb(105,105,105);stroke:rgb(105,105,105);stroke-width:0.48px;">Enabl<tspan x="1386.58px " y="571px ">e</tspan> consumers t<tspan x="1637.77px " y="571px ">o</tspan> pr<tspan x="1708.79px 1731.65px " y="571px 571px ">ov</tspan>ide detail<tspan x="1914.03px " y="571px ">e</tspan>d feedback, which will</text>
            <text x="1287px" y="629.119px" style="font-family:'Quicksand-Regular', 'Quicksand';font-size:38.746px;fill:rgb(105,105,105);stroke:rgb(105,105,105);stroke-width:0.48px;">be incorpor<tspan x="1491.85px 1515.18px 1528.12px " y="629.119px 629.119px 629.119px ">ate</tspan>d int<tspan x="1627.19px " y="629.119px ">o</tspan> W<tspan x="1697.67px " y="629.119px ">o</tspan>fG g<tspan x="1795.62px " y="629.119px ">u</tspan>idance on buil<tspan x="2065.26px " y="629.119px ">d</tspan>ing and running</text>
            <text x="1287px" y="687.238px" style="font-family:'Quicksand-Regular', 'Quicksand';font-size:38.746px;fill:rgb(105,105,105);stroke:rgb(105,105,105);stroke-width:0.48px;">APIs</text>
        </g>
        <g transform="matrix(0.411594,0,0,0.144033,-411.435,376.403)">
            <path d="M2280,458.084C2280,438.966 2277.34,420.631 2272.61,407.113C2267.88,393.595 2261.47,386 2254.78,386C2112.58,386 1412.42,386 1270.23,386C1263.54,386 1257.12,393.595 1252.39,407.113C1247.66,420.631 1245,438.966 1245,458.084C1245,549.999 1245,708.001 1245,799.916C1245,819.034 1247.66,837.369 1252.39,850.887C1257.12,864.405 1263.54,872 1270.23,872C1412.42,872 2112.58,872 2254.78,872C2261.47,872 2267.88,864.405 2272.61,850.887C2277.34,837.369 2280,819.034 2280,799.916C2280,708.001 2280,549.999 2280,458.084Z" style="fill:rgb(159,91,232);"/>
        </g>
        <g transform="matrix(1,0,0,1,-1226.8,2.48649)">
            <text x="1351px" y="478px" style="font-family:'Quicksand-Regular', 'Quicksand';font-size:37.838px;fill:white;stroke:white;stroke-width:1.46px;">Consumer Experience</text>
        </g>
    </g>
    <g id="Self-service-content-authoring" serif:id="Self service content authoring" transform="matrix(1,0,0,1,1170,411.384)">
        <g transform="matrix(1,0,0,0.771605,-1183,87.9321)">
            <path d="M2274,407.65C2274,401.643 2272.16,395.882 2268.88,391.634C2265.6,387.386 2261.16,385 2256.52,385C2132.18,385 1382.82,385 1258.48,385C1253.84,385 1249.4,387.386 1246.12,391.634C1242.84,395.882 1241,401.643 1241,407.65C1241,489.138 1241,766.862 1241,848.35C1241,854.357 1242.84,860.118 1246.12,864.366C1249.4,868.614 1253.84,871 1258.48,871C1382.82,871 2132.18,871 2256.52,871C2261.16,871 2265.6,868.614 2268.88,864.366C2272.16,860.118 2274,854.357 2274,848.35C2274,766.862 2274,489.138 2274,407.65Z" style="fill:white;"/>
        </g>
        <g id="title4" serif:id="title" transform="matrix(0.860301,0,0,0.860301,-1005.35,82.86)">
            <text x="1287px" y="571px" style="font-family:'Quicksand-Bold', 'Quicksand';font-weight:700;font-size:48.649px;">Self ser<tspan x="1466.51px " y="571px ">v</tspan>ice cont<tspan x="1675.8px " y="571px ">e</tspan>nt a<tspan x="1796.35px " y="571px ">u</tspan>thoring</text>
        </g>
        <g id="body4" serif:id="body" transform="matrix(0.860301,0,0,0.860301,-1005.35,152.739)">
            <text x="1287px" y="571px" style="font-family:'Quicksand-Regular', 'Quicksand';font-size:38.746px;fill:rgb(105,105,105);stroke:rgb(105,105,105);stroke-width:0.48px;">All<tspan x="1329.5px " y="571px ">o</tspan>w cont<tspan x="1470.58px " y="571px ">e</tspan>nt owners t<tspan x="1690.97px " y="571px ">o</tspan> cr<tspan x="1758.58px 1780.28px 1803.6px 1816.54px " y="571px 571px 571px 571px ">eate</tspan>, edit and publish without</text>
            <text x="1287px" y="629.119px" style="font-family:'Quicksand-Regular', 'Quicksand';font-size:38.746px;fill:rgb(105,105,105);stroke:rgb(105,105,105);stroke-width:0.48px;">assistance fr<tspan x="1511.77px " y="629.119px ">o</tspan>m the t<tspan x="1660.94px 1682.64px " y="629.119px 629.119px ">ea</tspan>m</text>
            <text x="1741.3px" y="629.119px" style="font-family:'Quicksand-Regular', 'Quicksand';font-size:38.746px;fill:rgb(105,105,105);stroke:rgb(105,105,105);stroke-width:0.48px;">.</text>
        </g>
        <g transform="matrix(0.38744,0,0,0.144033,-381.362,376.403)">
            <path d="M2280,458.084C2280,438.966 2277.18,420.631 2272.15,407.113C2267.13,393.594 2260.31,386 2253.2,386C2108.03,386 1416.97,386 1271.8,386C1264.69,386 1257.87,393.594 1252.85,407.113C1247.82,420.631 1245,438.966 1245,458.084C1245,549.999 1245,708.001 1245,799.916C1245,819.034 1247.82,837.369 1252.85,850.887C1257.87,864.406 1264.69,872 1271.8,872C1416.97,872 2108.03,872 2253.2,872C2260.31,872 2267.13,864.406 2272.15,850.887C2277.18,837.369 2280,819.034 2280,799.916C2280,708.001 2280,549.999 2280,458.084Z" style="fill:rgb(12,194,181);"/>
        </g>
        <g transform="matrix(1,0,0,1,-1226.8,2.48649)">
            <text x="1351px" y="478px" style="font-family:'Quicksand-Regular', 'Quicksand';font-size:37.838px;fill:white;stroke:white;stroke-width:1.46px;">Pr<tspan x="1387.29px 1409.8px 1433.18px " y="478px 478px 478px ">odu</tspan>cer Experience</text>
        </g>
    </g>
    <g id="DTA-platforms" serif:id="DTA platforms" transform="matrix(1,0,0,1,1170,98.1622)">
        <g transform="matrix(1,0,0,0.600823,-1183,153.683)">
            <path d="M2274,414.088C2274,406.374 2272.16,398.975 2268.88,393.52C2265.6,388.065 2261.16,385 2256.52,385C2132.18,385 1382.82,385 1258.48,385C1253.84,385 1249.4,388.065 1246.12,393.52C1242.84,398.975 1241,406.374 1241,414.088C1241,500.567 1241,755.433 1241,841.912C1241,849.626 1242.84,857.025 1246.12,862.48C1249.4,867.935 1253.84,871 1258.48,871C1382.82,871 2132.18,871 2256.52,871C2261.16,871 2265.6,867.935 2268.88,862.48C2272.16,857.025 2274,849.626 2274,841.912C2274,755.433 2274,500.567 2274,414.088Z" style="fill:white;"/>
        </g>
        <g id="title5" serif:id="title" transform="matrix(0.860301,0,0,0.860301,-1005.35,82.86)">
            <text x="1287px" y="571px" style="font-family:'Quicksand-Bold', 'Quicksand';font-weight:700;font-size:48.649px;">Incl<tspan x="1367.32px " y="571px ">u</tspan>de D<tspan x="1501.83px 1529.85px " y="571px 571px ">TA</tspan>&apos;s Notify and T<tspan x="1895.64px " y="571px ">e</tspan>ll Us Once plat<tspan x="2260.36px " y="571px ">f</tspan>orms</text>
        </g>
        <g id="body5" serif:id="body" transform="matrix(0.860301,0,0,0.860301,-1005.35,152.739)">
            <path d="M1324.72,545.35C1324.27,545.893 1324.04,546.642 1324.04,547.597L1324.04,551.588L1328.38,551.588C1328.66,551.588 1328.92,551.692 1329.14,551.898C1329.36,552.105 1329.47,552.363 1329.47,552.673C1329.47,552.983 1329.36,553.241 1329.14,553.448C1328.92,553.655 1328.66,553.758 1328.38,553.758L1324.04,553.758L1324.04,569.838C1324.04,570.173 1323.93,570.451 1323.71,570.671C1323.49,570.89 1323.21,571 1322.88,571C1322.54,571 1322.27,570.89 1322.05,570.671C1321.83,570.451 1321.72,570.173 1321.72,569.838L1321.72,553.758L1318.89,553.758C1318.58,553.758 1318.32,553.648 1318.11,553.429C1317.91,553.209 1317.8,552.957 1317.8,552.673C1317.8,552.337 1317.91,552.073 1318.11,551.879C1318.32,551.685 1318.58,551.588 1318.89,551.588L1321.72,551.588L1321.72,547.597C1321.72,545.97 1322.19,544.711 1323.13,543.82C1324.07,542.928 1325.33,542.483 1326.91,542.483C1327.63,542.483 1328.3,542.593 1328.92,542.812C1329.54,543.032 1329.85,543.387 1329.85,543.878C1329.85,544.188 1329.75,544.446 1329.54,544.653C1329.34,544.859 1329.1,544.963 1328.85,544.963C1328.61,544.963 1328.33,544.898 1327.99,544.769C1327.42,544.614 1326.97,544.536 1326.64,544.536C1325.81,544.536 1325.17,544.808 1324.72,545.35ZM1338.4,545.35C1337.94,545.893 1337.72,546.642 1337.72,547.597L1337.72,551.588L1342.06,551.588C1342.34,551.588 1342.59,551.692 1342.81,551.898C1343.03,552.105 1343.14,552.363 1343.14,552.673C1343.14,552.983 1343.03,553.241 1342.81,553.448C1342.59,553.655 1342.34,553.758 1342.06,553.758L1337.72,553.758L1337.72,569.838C1337.72,570.173 1337.61,570.451 1337.39,570.671C1337.17,570.89 1336.89,571 1336.56,571C1336.22,571 1335.94,570.89 1335.72,570.671C1335.5,570.451 1335.39,570.173 1335.39,569.838L1335.39,553.758L1332.57,553.758C1332.26,553.758 1332,553.648 1331.79,553.429C1331.58,553.209 1331.48,552.957 1331.48,552.673C1331.48,552.337 1331.58,552.073 1331.79,551.879C1332,551.685 1332.26,551.588 1332.57,551.588L1335.39,551.588L1335.39,547.597C1335.39,545.97 1335.87,544.711 1336.81,543.82C1337.75,542.928 1339.01,542.483 1340.59,542.483C1341.31,542.483 1341.98,542.593 1342.6,542.812C1343.22,543.032 1343.53,543.387 1343.53,543.878C1343.53,544.188 1343.43,544.446 1343.22,544.653C1343.01,544.859 1342.78,544.963 1342.52,544.963C1342.29,544.963 1342.01,544.898 1341.67,544.769C1341.1,544.614 1340.65,544.536 1340.32,544.536C1339.49,544.536 1338.85,544.808 1338.4,545.35Z" style="fill:rgb(105,105,105);stroke:rgb(105,105,105);stroke-width:0.48px;"/>
            <text x="1287px" y="571px" style="font-family:'Quicksand-Regular', 'Quicksand';font-size:38.746px;fill:rgb(105,105,105);stroke:rgb(105,105,105);stroke-width:0.48px;">O<tspan x="1344.03px " y="571px ">e</tspan>r the ﬁrst dedicat<tspan x="1669.77px " y="571px ">e</tspan>d Go<tspan x="1775.01px 1795.31px " y="571px 571px ">ve</tspan>rnment t<tspan x="1970.09px " y="571px ">o</tspan> Go<tspan x="2053.51px 2073.82px " y="571px 571px ">ve</tspan>rnment APIs</text>
        </g>
        <g transform="matrix(0.196135,0,0,0.144033,-143.188,376.403)">
            <path d="M2280,458.084C2280,438.966 2274.42,420.631 2264.5,407.113C2254.57,393.594 2241.1,386 2227.07,386C2049.4,386 1475.6,386 1297.93,386C1283.9,386 1270.43,393.594 1260.5,407.113C1250.58,420.631 1245,438.966 1245,458.084C1245,549.999 1245,708.001 1245,799.916C1245,819.034 1250.58,837.369 1260.5,850.887C1270.43,864.406 1283.9,872 1297.93,872C1475.6,872 2049.4,872 2227.07,872C2241.1,872 2254.57,864.406 2264.5,850.887C2274.42,837.369 2280,819.034 2280,799.916C2280,708.001 2280,549.999 2280,458.084Z" style="fill:rgb(242,147,67);"/>
        </g>
        <g transform="matrix(1,0,0,1,-1226.8,2.48649)">
            <text x="1351px" y="478px" style="font-family:'Quicksand-Regular', 'Quicksand';font-size:37.838px;fill:white;stroke:white;stroke-width:1.46px;">G2G APIs</text>
        </g>
    </g>
    <g id="ABN-Lookup" serif:id="ABN Lookup" transform="matrix(1,0,0,1,1170,807.605)">
        <g transform="matrix(1,0,0,0.709877,-1183,111.698)">
            <path d="M2274,409.62C2274,403.09 2272.16,396.828 2268.88,392.211C2265.6,387.594 2261.16,385 2256.52,385C2132.18,385 1382.82,385 1258.48,385C1253.84,385 1249.4,387.594 1246.12,392.211C1242.84,396.828 1241,403.09 1241,409.62C1241,492.849 1241,763.151 1241,846.38C1241,852.91 1242.84,859.172 1246.12,863.789C1249.4,868.406 1253.84,871 1258.48,871C1382.82,871 2132.18,871 2256.52,871C2261.16,871 2265.6,868.406 2268.88,863.789C2272.16,859.172 2274,852.91 2274,846.38C2274,763.151 2274,492.849 2274,409.62Z" style="fill:white;"/>
        </g>
        <g id="title6" serif:id="title" transform="matrix(0.860301,0,0,0.860301,-1005.35,82.86)">
            <text x="1287px" y="571px" style="font-family:'Quicksand-Bold', 'Quicksand';font-weight:700;font-size:48.649px;">Seed the plat<tspan x="1599.08px " y="571px ">f</tspan>orm with ABN Look<tspan x="2066.55px " y="571px ">u</tspan>p</text>
        </g>
        <g id="body6" serif:id="body" transform="matrix(0.860301,0,0,0.860301,-1005.35,152.739)">
            <text x="1287px" y="571px" style="font-family:'Quicksand-Regular', 'Quicksand';font-size:38.746px;fill:rgb(105,105,105);stroke:rgb(105,105,105);stroke-width:0.48px;">ABN Look<tspan x="1463.33px " y="571px ">u</tspan>p has 10,000 r<tspan x="1730.64px 1751.99px " y="571px 571px ">eg</tspan>ist<tspan x="1815.42px 1836.96px 1851.03px " y="571px 571px 571px ">ere</tspan>d users who perform</text>
            <text x="1287px" y="624.276px" style="font-family:'Quicksand-Regular', 'Quicksand';font-size:38.746px;fill:rgb(105,105,105);stroke:rgb(105,105,105);stroke-width:0.48px;">1 Billion API calls per y<tspan x="1676.55px 1698.25px 1721.58px 1732.42px " y="624.276px 624.276px 624.276px 624.276px ">ear.</tspan></text>
        </g>
        <g transform="matrix(0.172947,0,0,0.144033,-114.319,376.403)">
            <path d="M2280,458.084C2280,438.966 2273.68,420.631 2262.42,407.113C2251.16,393.594 2235.89,386 2219.97,386C2037.04,386 1487.96,386 1305.03,386C1289.11,386 1273.84,393.594 1262.58,407.113C1251.33,420.631 1245,438.966 1245,458.084C1245,549.999 1245,708.001 1245,799.916C1245,819.034 1251.33,837.369 1262.58,850.887C1273.84,864.406 1289.11,872 1305.03,872C1487.96,872 2037.04,872 2219.97,872C2235.89,872 2251.16,864.405 2262.42,850.887C2273.68,837.369 2280,819.034 2280,799.916C2280,708.001 2280,549.999 2280,458.084Z" style="fill:rgb(235,90,174);"/>
        </g>
        <g transform="matrix(1,0,0,1,-1226.8,2.48649)">
            <text x="1351px" y="478px" style="font-family:'Quicksand-Regular', 'Quicksand';font-size:37.838px;fill:white;stroke:white;stroke-width:1.46px;">Uptak<tspan x="1455.77px " y="478px ">e</tspan></text>
        </g>
    </g>
    <g id="DTA-Blog" serif:id="DTA Blog" transform="matrix(1,0,0,1,2344,931.412)">
        <g transform="matrix(1,0,0,0.613169,-1183,148.93)">
            <path d="M2274,413.502C2274,397.761 2266.18,385 2256.52,385C2132.18,385 1382.82,385 1258.48,385C1248.83,385 1241,397.761 1241,413.502C1241,499.605 1241,756.395 1241,842.498C1241,858.239 1248.83,871 1258.48,871C1382.82,871 2132.18,871 2256.52,871C2266.18,871 2274,858.239 2274,842.498C2274,756.395 2274,499.605 2274,413.502Z" style="fill:white;"/>
        </g>
        <g id="title7" serif:id="title" transform="matrix(0.860301,0,0,0.860301,-1005.35,82.86)">
            <text x="1287px" y="571px" style="font-family:'Quicksand-Bold', 'Quicksand';font-weight:700;font-size:48.649px;">Ong<tspan x="1382.74px " y="571px ">o</tspan>ing D<tspan x="1531.31px 1559.34px " y="571px 571px ">TA</tspan> Guest B<tspan x="1783.36px 1796.01px " y="571px 571px ">lo</tspan>g P<tspan x="1899.15px " y="571px ">o</tspan>st<tspan x="1973.34px " y="571px ">s</tspan></text>
        </g>
        <g id="body7" serif:id="body" transform="matrix(0.860301,0,0,0.860301,-1005.35,152.739)">
            <text x="1287px" y="571px" style="font-family:'Quicksand-Regular', 'Quicksand';font-size:38.746px;fill:rgb(105,105,105);stroke:rgb(105,105,105);stroke-width:0.48px;">Buil<tspan x="1351.09px " y="571px ">d</tspan> a<tspan x="1408.08px 1437.37px 1460.7px 1474.76px " y="571px 571px 571px 571px ">ware</tspan>ness of the plat<tspan x="1769.47px " y="571px ">f</tspan>orm, and it&apos;s e<tspan x="2033.17px 2053.48px 2076.53px 2085.25px " y="571px 571px 571px 571px ">volu</tspan>tion fr<tspan x="2212.49px " y="571px ">o</tspan>m SBR</text>
        </g>
        <g transform="matrix(0.411594,0,0,0.144033,-411.435,376.403)">
            <path d="M2280,458.084C2280,438.966 2277.34,420.631 2272.61,407.113C2267.88,393.595 2261.47,386 2254.78,386C2112.58,386 1412.42,386 1270.23,386C1263.54,386 1257.12,393.595 1252.39,407.113C1247.66,420.631 1245,438.966 1245,458.084C1245,549.999 1245,708.001 1245,799.916C1245,819.034 1247.66,837.369 1252.39,850.887C1257.12,864.405 1263.54,872 1270.23,872C1412.42,872 2112.58,872 2254.78,872C2261.47,872 2267.88,864.405 2272.61,850.887C2277.34,837.369 2280,819.034 2280,799.916C2280,708.001 2280,549.999 2280,458.084Z" style="fill:rgb(85,210,61);"/>
        </g>
        <g transform="matrix(1,0,0,1,-1226.8,2.48649)">
            <text x="1351px" y="478px" style="font-family:'Quicksand-Regular', 'Quicksand';font-size:37.838px;fill:white;stroke:white;stroke-width:1.46px;">Pr<tspan x="1387.29px 1409.8px 1433.18px " y="478px 478px 478px ">odu</tspan>ct D<tspan x="1524.83px 1545.68px 1565.5px 1586.54px 1594.87px " y="478px 478px 478px 478px 478px ">evelo</tspan>pment</text>
        </g>
    </g>
    <g id="Reusing-data-definitions" serif:id="Reusing data definitions" transform="matrix(1,0,0,1,0,98.1622)">
        <g transform="matrix(1,0,0,0.771605,-1183,87.9321)">
            <path d="M2274,407.65C2274,401.643 2272.16,395.882 2268.88,391.634C2265.6,387.386 2261.16,385 2256.52,385C2132.18,385 1382.82,385 1258.48,385C1253.84,385 1249.4,387.386 1246.12,391.634C1242.84,395.882 1241,401.643 1241,407.65C1241,489.138 1241,766.862 1241,848.35C1241,854.357 1242.84,860.118 1246.12,864.366C1249.4,868.614 1253.84,871 1258.48,871C1382.82,871 2132.18,871 2256.52,871C2261.16,871 2265.6,868.614 2268.88,864.366C2272.16,860.118 2274,854.357 2274,848.35C2274,766.862 2274,489.138 2274,407.65Z" style="fill:white;"/>
        </g>
        <g id="title8" serif:id="title" transform="matrix(0.860301,0,0,0.860301,-1005.35,82.86)">
            <text x="1287px" y="571px" style="font-family:'Quicksand-Bold', 'Quicksand';font-weight:700;font-size:48.649px;">R<tspan x="1320.18px " y="571px ">e</tspan>using data deﬁnitions of others</text>
        </g>
        <g id="body8" serif:id="body" transform="matrix(0.860301,0,0,0.860301,-1005.35,152.739)">
            <text x="1287px" y="571px" style="font-family:'Quicksand-Regular', 'Quicksand';font-size:38.746px;fill:rgb(105,105,105);stroke:rgb(105,105,105);stroke-width:0.48px;">Enabl<tspan x="1386.58px " y="571px ">e</tspan> pr<tspan x="1456.09px 1479.14px 1503.09px " y="571px 571px 571px ">odu</tspan>cers t<tspan x="1623.2px " y="571px ">o</tspan> se<tspan x="1696.7px 1720.03px 1734.09px " y="571px 571px 571px ">arc</tspan>h and link t<tspan x="1950.06px " y="571px ">o</tspan> data deﬁnitions used</text>
            <text x="1287px" y="624.276px" style="font-family:'Quicksand-Regular', 'Quicksand';font-size:38.746px;fill:rgb(105,105,105);stroke:rgb(105,105,105);stroke-width:0.48px;">by other ag<tspan x="1494.72px " y="624.276px ">e</tspan>ncies on their apis.</text>
        </g>
        <g transform="matrix(0.387995,0,0,0.144033,-382.054,376.403)">
            <path d="M2280,458.084C2280,438.966 2277.18,420.631 2272.16,407.113C2267.14,393.594 2260.34,386 2253.24,386C2108.14,386 1416.86,386 1271.76,386C1264.66,386 1257.86,393.594 1252.84,407.113C1247.82,420.631 1245,438.966 1245,458.084C1245,549.999 1245,708.001 1245,799.916C1245,819.034 1247.82,837.369 1252.84,850.887C1257.86,864.406 1264.66,872 1271.76,872C1416.86,872 2108.14,872 2253.24,872C2260.34,872 2267.14,864.406 2272.16,850.887C2277.18,837.369 2280,819.034 2280,799.916C2280,708.001 2280,549.999 2280,458.084Z" style="fill:rgb(12,194,181);"/>
        </g>
        <g transform="matrix(1,0,0,1,-1226.8,2.48649)">
            <text x="1351px" y="478px" style="font-family:'Quicksand-Regular', 'Quicksand';font-size:37.838px;fill:white;stroke:white;stroke-width:1.46px;">Pr<tspan x="1387.29px 1409.8px 1433.18px " y="478px 478px 478px ">odu</tspan>cer Experience</text>
        </g>
        <g transform="matrix(0.883436,0,0,0.883436,411.325,30.638)">
            <path d="M732,468.5C732,454.426 720.574,443 706.5,443L594.5,443C580.426,443 569,454.426 569,468.5C569,482.574 580.426,494 594.5,494L706.5,494C720.574,494 732,482.574 732,468.5Z" style="fill:white;"/>
            <clipPath id="_clip1">
                <path d="M732,468.5C732,454.426 720.574,443 706.5,443L594.5,443C580.426,443 569,454.426 569,468.5C569,482.574 580.426,494 594.5,494L706.5,494C720.574,494 732,482.574 732,468.5Z"/>
            </clipPath>
            <g clip-path="url(#_clip1)">
                <g transform="matrix(1,0,0,1,30.0417,-1.23333)">
                    <text x="584px" y="481.667px" style="font-family:'Quicksand-Bold', 'Quicksand';font-weight:700;font-size:33.333px;fill:rgb(239,106,48);">BET<tspan x="644.1px " y="481.667px ">A</tspan></text>
                </g>
            </g>
            <path d="M732,468.5C732,454.426 720.574,443 706.5,443L594.5,443C580.426,443 569,454.426 569,468.5C569,482.574 580.426,494 594.5,494L706.5,494C720.574,494 732,482.574 732,468.5Z" style="fill:none;stroke:rgb(239,106,48);stroke-width:4.24px;stroke-linecap:round;stroke-miterlimit:1.5;"/>
        </g>
    </g>
    <g id="Contemporary-API-documentation1" serif:id="Contemporary API documentation" transform="matrix(1,0,0,1,0,498.412)">
        <g transform="matrix(1,0,0,0.771605,-1183,87.9321)">
            <path d="M2274,407.65C2274,401.643 2272.16,395.882 2268.88,391.634C2265.6,387.386 2261.16,385 2256.52,385C2132.18,385 1382.82,385 1258.48,385C1253.84,385 1249.4,387.386 1246.12,391.634C1242.84,395.882 1241,401.643 1241,407.65C1241,489.138 1241,766.862 1241,848.35C1241,854.357 1242.84,860.118 1246.12,864.366C1249.4,868.614 1253.84,871 1258.48,871C1382.82,871 2132.18,871 2256.52,871C2261.16,871 2265.6,868.614 2268.88,864.366C2272.16,860.118 2274,854.357 2274,848.35C2274,766.862 2274,489.138 2274,407.65Z" style="fill:white;"/>
        </g>
        <g id="title9" serif:id="title" transform="matrix(0.860301,0,0,0.860301,-1005.35,82.86)">
            <text x="1287px" y="571px" style="font-family:'Quicksand-Bold', 'Quicksand';font-weight:700;font-size:48.649px;">Cont<tspan x="1396.02px " y="571px ">e</tspan>mpor<tspan x="1549.8px " y="571px ">a</tspan>ry API documentation</text>
        </g>
        <g transform="matrix(0.883436,0,0,0.883436,411.325,24.638)">
            <path d="M732,468.5C732,454.426 720.574,443 706.5,443L594.5,443C580.426,443 569,454.426 569,468.5C569,482.574 580.426,494 594.5,494L706.5,494C720.574,494 732,482.574 732,468.5Z" style="fill:white;"/>
            <clipPath id="_clip2">
                <path d="M732,468.5C732,454.426 720.574,443 706.5,443L594.5,443C580.426,443 569,454.426 569,468.5C569,482.574 580.426,494 594.5,494L706.5,494C720.574,494 732,482.574 732,468.5Z"/>
            </clipPath>
            <g clip-path="url(#_clip2)">
                <g transform="matrix(1,0,0,1,30.0417,-1.23333)">
                    <text x="584px" y="481.667px" style="font-family:'Quicksand-Bold', 'Quicksand';font-weight:700;font-size:33.333px;fill:rgb(239,106,48);">BET<tspan x="644.1px " y="481.667px ">A</tspan></text>
                </g>
            </g>
            <path d="M732,468.5C732,454.426 720.574,443 706.5,443L594.5,443C580.426,443 569,454.426 569,468.5C569,482.574 580.426,494 594.5,494L706.5,494C720.574,494 732,482.574 732,468.5Z" style="fill:none;stroke:rgb(239,106,48);stroke-width:4.24px;stroke-linecap:round;stroke-miterlimit:1.5;"/>
        </g>
        <g id="body9" serif:id="body" transform="matrix(0.860301,0,0,0.860301,-1005.35,152.739)">
            <path d="M1324.72,545.35C1324.27,545.893 1324.04,546.642 1324.04,547.597L1324.04,551.588L1328.38,551.588C1328.66,551.588 1328.92,551.692 1329.14,551.898C1329.36,552.105 1329.47,552.363 1329.47,552.673C1329.47,552.983 1329.36,553.241 1329.14,553.448C1328.92,553.655 1328.66,553.758 1328.38,553.758L1324.04,553.758L1324.04,569.838C1324.04,570.173 1323.93,570.451 1323.71,570.671C1323.49,570.89 1323.21,571 1322.88,571C1322.54,571 1322.27,570.89 1322.05,570.671C1321.83,570.451 1321.72,570.173 1321.72,569.838L1321.72,553.758L1318.89,553.758C1318.58,553.758 1318.32,553.648 1318.11,553.429C1317.91,553.209 1317.8,552.957 1317.8,552.673C1317.8,552.337 1317.91,552.073 1318.11,551.879C1318.32,551.685 1318.58,551.588 1318.89,551.588L1321.72,551.588L1321.72,547.597C1321.72,545.97 1322.19,544.711 1323.13,543.82C1324.07,542.928 1325.33,542.483 1326.91,542.483C1327.63,542.483 1328.3,542.593 1328.92,542.812C1329.54,543.032 1329.85,543.387 1329.85,543.878C1329.85,544.188 1329.75,544.446 1329.54,544.653C1329.34,544.859 1329.1,544.963 1328.85,544.963C1328.61,544.963 1328.33,544.898 1327.99,544.769C1327.42,544.614 1326.97,544.536 1326.64,544.536C1325.81,544.536 1325.17,544.808 1324.72,545.35ZM1338.4,545.35C1337.94,545.893 1337.72,546.642 1337.72,547.597L1337.72,551.588L1342.06,551.588C1342.34,551.588 1342.59,551.692 1342.81,551.898C1343.03,552.105 1343.14,552.363 1343.14,552.673C1343.14,552.983 1343.03,553.241 1342.81,553.448C1342.59,553.655 1342.34,553.758 1342.06,553.758L1337.72,553.758L1337.72,569.838C1337.72,570.173 1337.61,570.451 1337.39,570.671C1337.17,570.89 1336.89,571 1336.56,571C1336.22,571 1335.94,570.89 1335.72,570.671C1335.5,570.451 1335.39,570.173 1335.39,569.838L1335.39,553.758L1332.57,553.758C1332.26,553.758 1332,553.648 1331.79,553.429C1331.58,553.209 1331.48,552.957 1331.48,552.673C1331.48,552.337 1331.58,552.073 1331.79,551.879C1332,551.685 1332.26,551.588 1332.57,551.588L1335.39,551.588L1335.39,547.597C1335.39,545.97 1335.87,544.711 1336.81,543.82C1337.75,542.928 1339.01,542.483 1340.59,542.483C1341.31,542.483 1341.98,542.593 1342.6,542.812C1343.22,543.032 1343.53,543.387 1343.53,543.878C1343.53,544.188 1343.43,544.446 1343.22,544.653C1343.01,544.859 1342.78,544.963 1342.52,544.963C1342.29,544.963 1342.01,544.898 1341.67,544.769C1341.1,544.614 1340.65,544.536 1340.32,544.536C1339.49,544.536 1338.85,544.808 1338.4,545.35Z" style="fill:rgb(105,105,105);stroke:rgb(105,105,105);stroke-width:0.48px;"/>
            <text x="1287px" y="571px" style="font-family:'Quicksand-Regular', 'Quicksand';font-size:38.746px;fill:rgb(105,105,105);stroke:rgb(105,105,105);stroke-width:0.48px;">O<tspan x="1344.03px " y="571px ">e</tspan>r rich and int<tspan x="1590.03px 1611.58px 1626.03px " y="571px 571px 571px ">era</tspan>ctiv<tspan x="1711px " y="571px ">e</tspan> forms of documenting APIs, incl<tspan x="2305.64px " y="571px ">u</tspan>ding:</text>
            <text x="1287px" y="629.119px" style="font-family:'Quicksand-Regular', 'Quicksand';font-size:38.746px;fill:rgb(105,105,105);stroke:rgb(105,105,105);stroke-width:0.48px;">syntax highlighting<tspan x="1622.66px " y="629.119px ">,</tspan> g<tspan x="1664px " y="629.119px ">e</tspan>ner<tspan x="1743.93px 1767.26px 1780.2px " y="629.119px 629.119px 629.119px ">ate</tspan>d diagr<tspan x="1929.06px " y="629.119px ">a</tspan>ms, and int<tspan x="2147.24px 2168.78px 2183.24px " y="629.119px 629.119px 629.119px ">era</tspan>ctivity.</text>
        </g>
        <g transform="matrix(0.411594,0,0,0.144033,-411.435,376.403)">
            <path d="M2280,458.084C2280,438.966 2277.34,420.631 2272.61,407.113C2267.88,393.595 2261.47,386 2254.78,386C2112.58,386 1412.42,386 1270.23,386C1263.54,386 1257.12,393.595 1252.39,407.113C1247.66,420.631 1245,438.966 1245,458.084C1245,549.999 1245,708.001 1245,799.916C1245,819.034 1247.66,837.369 1252.39,850.887C1257.12,864.405 1263.54,872 1270.23,872C1412.42,872 2112.58,872 2254.78,872C2261.47,872 2267.88,864.405 2272.61,850.887C2277.34,837.369 2280,819.034 2280,799.916C2280,708.001 2280,549.999 2280,458.084Z" style="fill:rgb(159,91,232);"/>
        </g>
        <g transform="matrix(1,0,0,1,-1226.8,2.48649)">
            <text x="1351px" y="478px" style="font-family:'Quicksand-Regular', 'Quicksand';font-size:37.838px;fill:white;stroke:white;stroke-width:1.46px;">Consumer Experience</text>
        </g>
    </g>
    <g id="_-1----1-Feedback" serif:id="+1 / -1 Feedback" transform="matrix(1,0,0,1,0,898.662)">
        <g transform="matrix(1,0,0,0.771605,-1183,87.9321)">
            <path d="M2274,407.65C2274,401.643 2272.16,395.882 2268.88,391.634C2265.6,387.386 2261.16,385 2256.52,385C2132.18,385 1382.82,385 1258.48,385C1253.84,385 1249.4,387.386 1246.12,391.634C1242.84,395.882 1241,401.643 1241,407.65C1241,489.138 1241,766.862 1241,848.35C1241,854.357 1242.84,860.118 1246.12,864.366C1249.4,868.614 1253.84,871 1258.48,871C1382.82,871 2132.18,871 2256.52,871C2261.16,871 2265.6,868.614 2268.88,864.366C2272.16,860.118 2274,854.357 2274,848.35C2274,766.862 2274,489.138 2274,407.65Z" style="fill:white;"/>
        </g>
        <g id="title10" serif:id="title" transform="matrix(0.860301,0,0,0.860301,-1005.35,82.86)">
            <text x="1287px" y="571px" style="font-family:'Quicksand-Bold', 'Quicksand';font-weight:700;font-size:48.649px;">+1 / -1 F<tspan x="1464.91px " y="571px ">e</tspan>edback</text>
        </g>
        <g id="body10" serif:id="body" transform="matrix(0.860301,0,0,0.860301,-1005.35,152.739)">
            <text x="1287px" y="571px" style="font-family:'Quicksand-Regular', 'Quicksand';font-size:38.746px;fill:rgb(105,105,105);stroke:rgb(105,105,105);stroke-width:0.48px;">All<tspan x="1329.5px " y="571px ">o</tspan>w consumers t<tspan x="1611.34px " y="571px ">o</tspan> r<tspan x="1659.43px 1682.75px 1695.69px " y="571px 571px 571px ">ate</tspan> the ser<tspan x="1851.65px " y="571px ">v</tspan>ice, and displa<tspan x="2124.5px " y="571px ">y</tspan> the</text>
            <text x="1287px" y="629.119px" style="font-family:'Quicksand-Regular', 'Quicksand';font-size:38.746px;fill:rgb(105,105,105);stroke:rgb(105,105,105);stroke-width:0.48px;">aggr<tspan x="1372.43px 1393.78px 1417.61px 1440.94px 1453.88px " y="629.119px 629.119px 629.119px 629.119px 629.119px ">egate</tspan> r<tspan x="1500.45px " y="629.119px ">a</tspan>ting so pr<tspan x="1691.39px 1714.45px 1738.39px " y="629.119px 629.119px 629.119px ">odu</tspan>cers can impr<tspan x="2002.8px 2025.66px 2045.96px " y="629.119px 629.119px 629.119px ">ove</tspan>.</text>
        </g>
        <g transform="matrix(0.411594,0,0,0.144033,-411.435,376.403)">
            <path d="M2280,458.084C2280,438.966 2277.34,420.631 2272.61,407.113C2267.88,393.595 2261.47,386 2254.78,386C2112.58,386 1412.42,386 1270.23,386C1263.54,386 1257.12,393.595 1252.39,407.113C1247.66,420.631 1245,438.966 1245,458.084C1245,549.999 1245,708.001 1245,799.916C1245,819.034 1247.66,837.369 1252.39,850.887C1257.12,864.405 1263.54,872 1270.23,872C1412.42,872 2112.58,872 2254.78,872C2261.47,872 2267.88,864.405 2272.61,850.887C2277.34,837.369 2280,819.034 2280,799.916C2280,708.001 2280,549.999 2280,458.084Z" style="fill:rgb(159,91,232);"/>
        </g>
        <g transform="matrix(1,0,0,1,-1226.8,2.48649)">
            <text x="1351px" y="478px" style="font-family:'Quicksand-Regular', 'Quicksand';font-size:37.838px;fill:white;stroke:white;stroke-width:1.46px;">Consumer Experience</text>
        </g>
        <g transform="matrix(0.883436,0,0,0.883436,411.325,26.638)">
            <path d="M732,468.5C732,454.426 720.574,443 706.5,443L594.5,443C580.426,443 569,454.426 569,468.5C569,482.574 580.426,494 594.5,494L706.5,494C720.574,494 732,482.574 732,468.5Z" style="fill:white;"/>
            <clipPath id="_clip3">
                <path d="M732,468.5C732,454.426 720.574,443 706.5,443L594.5,443C580.426,443 569,454.426 569,468.5C569,482.574 580.426,494 594.5,494L706.5,494C720.574,494 732,482.574 732,468.5Z"/>
            </clipPath>
            <g clip-path="url(#_clip3)">
                <g transform="matrix(1,0,0,1,14.0333,-1.23333)">
                    <text x="584px" y="481.667px" style="font-family:'Quicksand-Bold', 'Quicksand';font-weight:700;font-size:33.333px;fill:rgb(197,42,114);">ALPHA</text>
                </g>
            </g>
            <path d="M732,468.5C732,454.426 720.574,443 706.5,443L594.5,443C580.426,443 569,454.426 569,468.5C569,482.574 580.426,494 594.5,494L706.5,494C720.574,494 732,482.574 732,468.5Z" style="fill:none;stroke:rgb(197,42,114);stroke-width:4.24px;stroke-linecap:round;stroke-miterlimit:1.5;"/>
        </g>
    </g>
    <g transform="matrix(1,0,0,1,-13.091,53.3494)">
        <text x="1150px" y="144px" style="font-family:'Quicksand-Bold', 'Quicksand';font-weight:700;font-size:129.832px;">api.g<tspan x="1454.33px 1533.39px " y="144px 144px ">ov</tspan>.a<tspan x="1718.28px " y="144px ">u</tspan></text>
        <text x="1829.93px" y="144px" style="font-family:'Quicksand-Regular', 'Quicksand';font-size:129.832px;">r<tspan x="1877.06px " y="144px ">o</tspan>admap</text>
    </g>
    <g transform="matrix(1,0,0,1,0,98.1622)">
        <text x="67px" y="309px" style="font-family:'Quicksand-Regular', 'Quicksand';font-size:95.946px;">Now</text>
    </g>
    <g transform="matrix(1,0,0,1,1168.98,98.1622)">
        <text x="67px" y="309px" style="font-family:'Quicksand-Regular', 'Quicksand';font-size:95.946px;">Ne<tspan x="189.427px 240.662px " y="309px 309px ">xt</tspan></text>
    </g>
    <g transform="matrix(1,0,0,1,2344.98,98.1622)">
        <text x="67px" y="309px" style="font-family:'Quicksand-Regular', 'Quicksand';font-size:95.946px;">Lat<tspan x="207.849px " y="309px ">e</tspan>r</text>
    </g>
    <g transform="matrix(1,0,0,1,-7.56299,98.1622)">
        <path d="M1176,241.838L1176,2162" style="fill:none;stroke:rgb(229,229,229);stroke-width:6.25px;stroke-linecap:round;stroke-miterlimit:1.5;stroke-dasharray:12.5,31.25,12.5,0;"/>
        <g transform="matrix(1,0,0,1,1171,0)">
            <path d="M1176,241.838L1176,2162" style="fill:none;stroke:rgb(229,229,229);stroke-width:6.25px;stroke-linecap:round;stroke-miterlimit:1.5;stroke-dasharray:12.5,31.25,12.5,0;"/>
        </g>
    </g>
</svg>
